# xmcd CD database file
#
# Track frame offsets:
#	150
#	14224
#	43759
#	77365
#	109707
#	147814
#	169772
#	191658
#	212683
#	244737
#	273918
#	308379
#	339718
#	355787
#	377975
#
# Disc length: 5465 seconds
#
# Revision: 0
# Processed by: cddbd v1.5.2PL0 Copyright (c) Steve Scherf et al.
# Submitted via: CDex 1.50beta8
#
DISCID=d315570f
DTITLE=Andrey Klimkovsky - Между Небом и Землей
DYEAR=1900
DGENRE=New Age
TTITLE0=Рассвет в долине Сфинкса
TTITLE1=Одинокий Сфинкс
TTITLE2=Дорога длинною в жизнь
TTITLE3=Небо прекрасной Эллады
TTITLE4=На побережье
TTITLE5=Обещание
TTITLE6=Отпуская птицу
TTITLE7=Между Небом и Землей
TTITLE8=Avante-2005
TTITLE9=Special Flight
TTITLE10=LifeImitation
TTITLE11=Маринер_10
TTITLE12=Обратная сторона ожидания
TTITLE13=Foretell
TTITLE14=Морской рассвет
EXTD=
EXTT0=
EXTT1=
EXTT2=
EXTT3=
EXTT4=
EXTT5=
EXTT6=
EXTT7=
EXTT8=
EXTT9=
EXTT10=
EXTT11=
EXTT12=
EXTT13=
EXTT14=
PLAYORDER=
